<svg xmlns="http://www.w3.org/2000/svg" width="320" height="320" fill="none" viewBox="0 0 320 320"><path fill="#E94646" fill-rule="evenodd" d="M320 16C320 7.163 312.837 0 304 0S288 7.163 288 16v256c0 8.837-7.163 16-16 16H80c-8.837 0-16 7.163-16 16s7.163 16 16 16h224c8.837 0 16-7.163 16-16V16Z" clip-rule="evenodd"/><path fill="#FB7B05" fill-rule="evenodd" d="M256 80c0-8.837-7.163-16-16-16s-16 7.163-16 16v128c0 8.837-7.163 16-16 16H80c-8.837 0-16 7.163-16 16s7.163 16 16 16h160c8.837 0 16-7.163 16-16V80Z" clip-rule="evenodd"/><path fill="#4ACA3F" fill-rule="evenodd" d="M192 80c0-8.837-7.163-16-16-16s-16 7.163-16 16v64c0 8.837-7.163 16-16 16H80c-8.837 0-16 7.163-16 16s7.163 16 16 16h96c8.837 0 16-7.163 16-16V80Z" clip-rule="evenodd"/><path fill="#4180E9" fill-rule="evenodd" d="M16 0C7.163 0 0 7.163 0 16s7.163 16 16 16h224c8.837 0 16-7.163 16-16s-7.163-16-16-16H16Zm16 80c0-8.837-7.163-16-16-16S0 71.163 0 80v224c0 8.837 7.163 16 16 16s16-7.163 16-16V80Z" clip-rule="evenodd"/></svg>
